<svg xmlns="http://www.w3.org/2000/svg" width="20.16" height="24" viewBox="0 0 20.16 24">
  <g id="Group_10016" data-name="Group 10016" transform="translate(-456.329 -1051.903)">
    <path id="Path_244" data-name="Path 244" d="M64.8,11.52a4.744,4.744,0,0,0-.566.034,4.967,4.967,0,0,0-1.354.365c-3.041,1.292-5.28,5.572-5.28,10.641s2.239,9.349,5.28,10.641a4.967,4.967,0,0,0,1.354.365,4.744,4.744,0,0,0,.566.034c3.97,0,7.2-4.952,7.2-11.04s-3.23-11.04-7.2-11.04" transform="translate(403.529 1041.343)" fill="#f8cc5d"/>
    <path id="Path_245" data-name="Path 245" d="M15.021,92.16H12.173A16.033,16.033,0,0,0,11.606,96h2.881a17.039,17.039,0,0,1,.534-3.84" transform="translate(445.69 967.423)" fill="#f8cc5d"/>
    <path id="Path_246" data-name="Path 246" d="M26.232,46.08H23.537a11.71,11.71,0,0,0-1.477,2.88h2.828a13.214,13.214,0,0,1,1.344-2.88" transform="translate(436.107 1009.663)" fill="#f8cc5d"/>
    <path id="Path_247" data-name="Path 247" d="M14.488,149.76H11.607a16.034,16.034,0,0,0,.567,3.84h2.848a17.044,17.044,0,0,1-.534-3.84" transform="translate(445.69 914.623)" fill="#f8cc5d"/>
    <path id="Path_248" data-name="Path 248" d="M53.9,11.554a4.762,4.762,0,0,0-.566-.034,5.622,5.622,0,0,0-4.053,1.92h2.578A8.413,8.413,0,0,1,53.9,11.554" transform="translate(411.15 1041.343)" fill="#f8cc5d"/>
    <path id="Path_249" data-name="Path 249" d="M24.887,207.36H22.059a11.712,11.712,0,0,0,1.477,2.88h2.694a13.222,13.222,0,0,1-1.344-2.88" transform="translate(436.108 861.823)" fill="#f8cc5d"/>
    <path id="Path_250" data-name="Path 250" d="M51.864,253.44H49.286a5.622,5.622,0,0,0,4.053,1.92,4.74,4.74,0,0,0,.566-.034,8.413,8.413,0,0,1-2.041-1.886" transform="translate(411.15 819.583)" fill="#f8cc5d"/>
    <path id="Path_251" data-name="Path 251" d="M12,0H8.16C5.943,0,3.873,1.274,2.33,3.588A15.3,15.3,0,0,0,0,12a15.3,15.3,0,0,0,2.33,8.412C3.873,22.726,5.943,24,8.16,24H12c2.217,0,4.288-1.274,5.83-3.588A15.3,15.3,0,0,0,20.16,12a15.3,15.3,0,0,0-2.33-8.412C16.288,1.274,14.217,0,12,0M8.16.96a4.744,4.744,0,0,1,.566.034A8.411,8.411,0,0,0,6.685,2.88H4.107A5.622,5.622,0,0,1,8.16.96M3.315,3.84H6.01A13.218,13.218,0,0,0,4.666,6.72H1.838A11.712,11.712,0,0,1,3.315,3.84M1.534,7.68H4.382a17.043,17.043,0,0,0-.534,3.84H.967a16.025,16.025,0,0,1,.567-3.84m-.567,4.8H3.848a17.043,17.043,0,0,0,.534,3.84H1.534a16.025,16.025,0,0,1-.567-3.84m2.348,7.68a11.712,11.712,0,0,1-1.477-2.88H4.666A13.218,13.218,0,0,0,6.01,20.16ZM8.16,23.04a5.622,5.622,0,0,1-4.053-1.92H6.685a8.411,8.411,0,0,0,2.041,1.886,4.744,4.744,0,0,1-.566.034m3.84,0a4.744,4.744,0,0,1-.566-.034,4.967,4.967,0,0,1-1.354-.365C7.039,21.349,4.8,17.068,4.8,12S7.039,2.651,10.08,1.359A4.967,4.967,0,0,1,11.434.994,4.744,4.744,0,0,1,12,.96c3.97,0,7.2,4.952,7.2,11.04S15.97,23.04,12,23.04" transform="translate(456.329 1051.903)" fill="#1f343e"/>
    <path id="Path_253" data-name="Path 253" d="M108.538,63.592l-2.659.693.39-3.816a.45.45,0,0,0-.127-.359.348.348,0,0,0-.333-.1l-3.124.815a.349.349,0,0,0-.249.329L102,68.411a.449.449,0,0,0,.135.348.347.347,0,0,0,.326.095l3.1-.807.3,5.55a.422.422,0,0,0,.318.4.316.316,0,0,0,.143,0,.337.337,0,0,0,.237-.252l2.435-9.626a.448.448,0,0,0-.1-.4.353.353,0,0,0-.353-.123" transform="translate(362.829 996.903)" fill="#1f343e"/>
  </g>
</svg>
